<?xml version="1.0" encoding="UTF-8"?><svg id="Layer_1" xmlns="http://www.w3.org/2000/svg" viewBox="0 0 380.68 72.06"><defs><style>.cls-1{fill:#5463e1;}.cls-1,.cls-2{stroke-width:0px;}.cls-2{fill:#1d1d1b;}</style></defs><path class="cls-1" d="M0,64.71V0h20.17v8.13h-9.64v48.43h9.64v8.16H0Z"/><path class="cls-2" d="M26.39,57.34V4.97h20.97c3.85,0,7.06.57,9.64,1.71,2.57,1.14,4.51,2.72,5.8,4.74,1.29,2.02,1.94,4.34,1.94,6.97,0,2.05-.41,3.84-1.23,5.38-.82,1.54-1.94,2.8-3.36,3.79-1.42.98-3.05,1.67-4.87,2.08v.51c1.99.09,3.86.65,5.61,1.69,1.75,1.04,3.17,2.49,4.26,4.36,1.09,1.87,1.64,4.09,1.64,6.66,0,2.78-.69,5.25-2.06,7.43s-3.4,3.89-6.07,5.15c-2.68,1.26-5.97,1.89-9.9,1.89h-22.37ZM37.46,26.88h8.21c1.52,0,2.87-.27,4.05-.81,1.18-.54,2.12-1.3,2.81-2.29.69-.99,1.04-2.17,1.04-3.55,0-1.89-.67-3.42-2.01-4.58-1.34-1.16-3.23-1.74-5.69-1.74h-8.41v12.96ZM37.46,48.29h9.03c3.08,0,5.33-.59,6.75-1.78,1.41-1.18,2.12-2.77,2.12-4.74,0-1.45-.35-2.73-1.05-3.84-.7-1.11-1.69-1.98-2.98-2.61s-2.82-.95-4.59-.95h-9.28v13.91Z"/><path class="cls-2" d="M84.66,4.97v52.36h-10.89V4.97h10.89Z"/><path class="cls-2" d="M118.53,40.61v-22.55h10.89v39.27h-10.46v-7.13h-.41c-.89,2.3-2.36,4.15-4.41,5.55-2.05,1.4-4.56,2.1-7.5,2.1-2.62,0-4.93-.6-6.93-1.79-1.99-1.19-3.55-2.89-4.67-5.09-1.12-2.2-1.68-4.83-1.7-7.9v-25.01h10.89v23.06c.02,2.32.64,4.15,1.87,5.5,1.23,1.35,2.87,2.02,4.93,2.02,1.31,0,2.54-.3,3.68-.91,1.14-.6,2.07-1.5,2.77-2.7.71-1.19,1.05-2.67,1.04-4.42Z"/><path class="cls-2" d="M156.02,58.1c-4.04,0-7.51-.82-10.42-2.47s-5.14-3.98-6.71-7.01c-1.57-3.03-2.35-6.61-2.35-10.75s.78-7.59,2.35-10.64,3.78-5.43,6.64-7.13c2.85-1.71,6.21-2.56,10.06-2.56,2.59,0,5.01.41,7.25,1.24,2.24.83,4.2,2.07,5.88,3.72,1.68,1.65,2.99,3.73,3.92,6.23s1.41,5.42,1.41,8.76v2.99h-33.16v-6.75h22.91c0-1.57-.34-2.96-1.02-4.17-.68-1.21-1.62-2.16-2.83-2.85-1.2-.69-2.59-1.04-4.18-1.04s-3.12.38-4.38,1.14c-1.27.76-2.26,1.77-2.98,3.04s-1.08,2.68-1.1,4.23v6.42c0,1.94.36,3.62,1.09,5.04.72,1.42,1.75,2.51,3.08,3.27,1.33.77,2.91,1.15,4.73,1.15,1.21,0,2.32-.17,3.32-.51,1.01-.34,1.87-.85,2.58-1.53.72-.68,1.26-1.52,1.64-2.5l10.07.66c-.51,2.42-1.56,4.53-3.13,6.33-1.58,1.8-3.6,3.2-6.08,4.19-2.48,1-5.34,1.5-8.58,1.5Z"/><path class="cls-2" d="M181.15,72.06V18.06h10.74v6.6h.49c.48-1.06,1.17-2.13,2.08-3.23.91-1.1,2.1-2.02,3.58-2.76s3.31-1.11,5.51-1.11c2.86,0,5.51.75,7.93,2.24,2.42,1.49,4.35,3.73,5.8,6.72,1.45,2.99,2.17,6.74,2.17,11.24s-.7,8.08-2.11,11.08c-1.41,3.01-3.32,5.29-5.73,6.83-2.41,1.54-5.11,2.31-8.09,2.31-2.11,0-3.91-.35-5.38-1.05-1.47-.7-2.68-1.58-3.62-2.65-.94-1.07-1.65-2.14-2.15-3.23h-.33v21.02h-10.89ZM191.81,37.7c0,2.34.32,4.37.97,6.11.65,1.74,1.58,3.09,2.81,4.05,1.23.96,2.72,1.44,4.47,1.44s3.27-.49,4.5-1.47c1.23-.98,2.16-2.34,2.8-4.09.64-1.75.96-3.76.96-6.05s-.32-4.26-.95-5.98c-.63-1.72-1.56-3.07-2.79-4.04-1.23-.97-2.74-1.46-4.53-1.46s-3.27.47-4.49,1.41c-1.22.94-2.15,2.27-2.8,3.99-.65,1.72-.97,3.75-.97,6.08Z"/><path class="cls-2" d="M244.43,58.1c-3.97,0-7.4-.85-10.29-2.54-2.89-1.7-5.12-4.06-6.69-7.11s-2.35-6.58-2.35-10.6.78-7.61,2.35-10.65c1.57-3.04,3.8-5.41,6.69-7.11,2.89-1.7,6.32-2.54,10.29-2.54s7.4.85,10.29,2.54c2.89,1.7,5.12,4.07,6.69,7.11,1.57,3.04,2.35,6.59,2.35,10.65s-.78,7.55-2.35,10.6-3.8,5.41-6.69,7.11c-2.89,1.7-6.32,2.54-10.29,2.54ZM244.48,49.67c1.81,0,3.32-.52,4.53-1.55,1.21-1.03,2.13-2.44,2.75-4.23.62-1.79.93-3.83.93-6.11s-.31-4.32-.93-6.11c-.62-1.79-1.54-3.21-2.75-4.24-1.21-1.04-2.72-1.56-4.53-1.56s-3.35.52-4.59,1.56c-1.24,1.04-2.17,2.45-2.79,4.24-.62,1.79-.93,3.83-.93,6.11s.31,4.32.93,6.11c.62,1.79,1.55,3.2,2.79,4.23,1.24,1.03,2.77,1.55,4.59,1.55Z"/><path class="cls-1" d="M276.34,13c-1.62,0-3-.54-4.16-1.62-1.15-1.08-1.73-2.38-1.73-3.9s.58-2.79,1.73-3.87,2.54-1.62,4.16-1.62,3,.54,4.15,1.62c1.15,1.08,1.73,2.37,1.73,3.87s-.58,2.82-1.73,3.9c-1.15,1.08-2.54,1.62-4.15,1.62Z"/><rect class="cls-2" x="270.87" y="18.06" width="10.89" height="39.27"/><path class="cls-2" d="M301.35,34.63v22.71h-10.89V18.06h10.38v6.93h.46c.87-2.28,2.33-4.09,4.37-5.43,2.05-1.34,4.53-2.01,7.44-2.01,2.73,0,5.1.6,7.13,1.79,2.03,1.19,3.6,2.89,4.73,5.1,1.12,2.21,1.69,4.84,1.69,7.89v25.01h-10.89v-23.06c.02-2.4-.6-4.28-1.84-5.64s-2.96-2.03-5.14-2.03c-1.47,0-2.76.31-3.87.95-1.12.63-1.99,1.55-2.61,2.75-.62,1.2-.94,2.65-.96,4.33Z"/><path class="cls-2" d="M356.11,18.06v8.18h-23.65v-8.18h23.65ZM337.83,8.65h10.89v36.61c0,1.01.15,1.79.46,2.34s.74.94,1.29,1.16,1.2.33,1.93.33c.51,0,1.02-.05,1.53-.14s.9-.17,1.18-.22l1.71,8.1c-.55.17-1.31.37-2.3.6s-2.19.37-3.6.42c-2.63.1-4.92-.25-6.89-1.05s-3.5-2.04-4.59-3.73-1.63-3.82-1.61-6.39V8.65Z"/><path class="cls-1" d="M380.68,0v64.71h-20.17v-8.16h9.64V8.13h-9.64V0h20.17Z"/></svg>